<?xml version="1.0" encoding="UTF-8" standalone="no"?>
<!DOCTYPE svg PUBLIC "-//W3C//DTD SVG 1.1//EN" "http://www.w3.org/Graphics/SVG/1.1/DTD/svg11.dtd">
<svg width="100%" height="100%" viewBox="0 0 481 107" version="1.1" xmlns="http://www.w3.org/2000/svg" xmlns:xlink="http://www.w3.org/1999/xlink" xml:space="preserve" xmlns:serif="http://www.serif.com/" style="fill-rule:evenodd;clip-rule:evenodd;stroke-linejoin:round;stroke-miterlimit:2;">
    <g transform="matrix(1,0,0,1,-252.743,-208.022)">
        <g id="logo-center" transform="matrix(1.05469,0,0,1.05469,-47.0642,-143.67)">
            <g id="logo-group">
                <g id="logo-center1" serif:id="logo-center">
                    <g id="title">
                        <g transform="matrix(2,0,0,2,125.303,185.27)">
                            <g id="path69082">
                                <path d="M120.521,87.365L120.521,74.093L94.079,74.093L94.079,74.094L79.479,87.366L79.479,111.432L94.079,124.529L94.079,124.705L120.521,124.705L120.521,111.432L94.08,111.433L94.08,87.366L120.521,87.365Z" style="fill:rgb(34,43,100);fill-rule:nonzero;"/>
                            </g>
                        </g>
                        <g transform="matrix(2,0,0,2,218.116,185.27)">
                            <g id="path69084">
                                <path d="M120.521,87.365L120.521,74.093L94.079,74.093L94.079,74.094L79.479,87.366L79.479,111.432L94.079,124.529L94.079,124.53L120.521,124.53L120.521,111.257L94.08,111.257L94.08,105.284L118.095,105.284L118.095,92.012L94.08,92.012L94.08,87.366L120.521,87.365Z" style="fill:rgb(34,43,100);fill-rule:nonzero;"/>
                            </g>
                        </g>
                        <g transform="matrix(2,0,0,2,311.178,185.269)">
                            <g id="path69086">
                                <path d="M121.674,92.851L121.674,92.85C121.674,82.491 113.276,74.093 102.917,74.093L78.326,74.094L78.326,87.366L102.917,87.366C105.946,87.366 108.402,89.821 108.402,92.85L108.402,92.851C108.402,95.879 105.947,98.335 102.918,98.335L102.918,98.334L94.917,98.335L89.608,111.607L100.291,124.53L118.873,124.53L106.705,111.224C115.249,109.472 121.674,101.912 121.674,92.851Z" style="fill:rgb(34,43,100);fill-rule:nonzero;"/>
                            </g>
                        </g>
                        <g transform="matrix(2,0,0,2,403.428,185.269)">
                            <g id="path69088">
                                <path d="M121.674,92.851L121.674,92.85C121.674,82.491 113.276,74.093 102.917,74.093L78.326,74.094L78.326,87.366L102.917,87.366C105.946,87.366 108.402,89.821 108.402,92.85L108.402,92.851C108.402,95.879 105.947,98.335 102.918,98.335L102.918,98.334L94.917,98.335L89.608,111.607L100.291,124.53L118.873,124.53L106.705,111.224C115.249,109.472 121.674,101.912 121.674,92.851Z" style="fill:rgb(34,43,100);fill-rule:nonzero;"/>
                            </g>
                        </g>
                        <g transform="matrix(2,0,0,2,498.7,185.27)">
                            <g id="path69090">
                                <path d="M120.521,87.365L120.521,74.093L94.079,74.093L94.079,74.094L79.479,87.365L79.479,124.53L94.08,124.53L94.08,106.611L118.095,106.611L118.095,93.338L94.08,93.339L94.08,87.365L120.521,87.365Z" style="fill:rgb(34,43,100);fill-rule:nonzero;"/>
                            </g>
                        </g>
                    </g>
                </g>
            </g>
        </g>
    </g>
</svg>
